<svg width="269" height="39" viewBox="0 0 269 39" fill="none" xmlns="http://www.w3.org/2000/svg">
<path d="M1.68548 11.0006C1.68548 11.0006 1.52353 10.9946 1.51753 11.0006C1.45755 11.1566 1.74546 11.1566 1.68548 11.0006Z" fill="black"/>
<path d="M39 19.5L35.617 15.1813L36.3908 9.747L31.2984 7.70163L29.253 2.6092L23.8187 3.38296L19.5 0L15.1813 3.38296L9.747 2.6092L7.70163 7.70163L2.6092 9.747L3.38296 15.1813L0 19.5L3.38296 23.8187L2.6092 29.253L7.70163 31.2984L9.747 36.3908L15.1813 35.617L19.5 39L23.8187 35.617L29.253 36.3908L31.2984 31.2984L36.3908 29.253L35.617 23.8187L39 19.5Z" fill="#AAF800"/>
<path d="M200.518 24.7184C200.435 24.8022 200.686 25.0178 200.686 24.7184C200.632 24.7364 200.542 24.6944 200.518 24.7184Z" fill="black"/>
<path d="M62.9265 26.7278C62.8187 26.7278 62.8187 26.8955 62.9265 26.8955C63.0342 26.8955 63.0342 26.7278 62.9265 26.7278Z" fill="black"/>
<path d="M71.426 21.4554H79.8834V17.2567H71.426V13.3039H81.251V8.88927H66.4056V30.1827H81.5569V25.7741H71.426V21.4554Z" fill="black"/>
<path d="M99.0536 19.2001C98.3938 18.6723 97.614 18.2284 96.7143 17.8625C95.8146 17.4966 94.8009 17.2027 93.6912 16.9808C93.2054 16.9028 92.7375 16.7948 92.2936 16.6629C91.8498 16.5309 91.4539 16.369 91.106 16.177C90.7581 15.9851 90.4882 15.7632 90.2843 15.5232C90.0803 15.2773 89.9784 14.9834 89.9784 14.6415C89.9784 14.2576 90.0983 13.9277 90.3442 13.6518C90.5902 13.3759 90.9261 13.166 91.3639 13.016C91.7958 12.866 92.3236 12.7881 92.9294 12.7881C93.5353 12.7881 94.0931 12.878 94.6449 13.064C95.2027 13.2439 95.7306 13.5079 96.2284 13.8557C96.7263 14.1976 97.1881 14.6355 97.614 15.1633L100.805 12.0923C100.301 11.3185 99.6834 10.6647 98.9636 10.1129C98.2438 9.56706 97.3801 9.14719 96.3784 8.84728C95.3767 8.55337 94.1711 8.40942 92.7735 8.40942C91.7178 8.40942 90.7041 8.56537 89.7324 8.88327C88.7607 9.19517 87.903 9.64504 87.1652 10.2209C86.4275 10.7967 85.8396 11.4865 85.4018 12.2902C84.9639 13.094 84.748 13.9697 84.748 14.9234C84.748 15.8171 84.8919 16.6209 85.1738 17.3407C85.4557 18.0605 85.8876 18.6963 86.4634 19.2541C87.0393 19.8119 87.765 20.2858 88.6348 20.6697C89.5045 21.0535 90.5302 21.3774 91.7058 21.6414C92.1317 21.7253 92.5456 21.8213 92.9534 21.9293C93.3613 22.0432 93.7452 22.1752 94.1111 22.3251C94.477 22.4751 94.7889 22.643 95.0528 22.829C95.3167 23.0089 95.5266 23.2249 95.6766 23.4648C95.8266 23.7107 95.9045 23.9806 95.9045 24.2865C95.9045 24.6944 95.7846 25.0303 95.5386 25.3062C95.2927 25.5821 94.9508 25.7861 94.501 25.93C94.0571 26.074 93.5593 26.14 93.0134 26.14C91.9158 26.14 90.8601 25.906 89.8344 25.4382C88.8087 24.9703 87.789 24.0586 86.7753 22.703L83.6443 26.2599C84.3341 27.1297 85.1139 27.8854 85.9836 28.5272C86.8533 29.163 87.855 29.6549 88.9827 29.9848C90.1103 30.3207 91.3699 30.4886 92.7675 30.4886C94.387 30.4886 95.8266 30.2187 97.0682 29.6849C98.3158 29.1451 99.2995 28.3653 100.019 27.3456C100.739 26.3199 101.099 25.0723 101.099 23.5908C101.099 22.637 100.919 21.8033 100.565 21.0835C100.211 20.3637 99.7014 19.7399 99.0416 19.2121L99.0536 19.2001Z" fill="black"/>
<path d="M117.456 9.80699C116.412 9.20118 115.219 8.89527 113.881 8.89527H104.698V30.1827H109.868V23.0629H113.881C115.219 23.0629 116.412 22.751 117.456 22.1212C118.5 21.4914 119.333 20.6337 119.951 19.554C120.569 18.4743 120.881 17.2387 120.881 15.8591C120.881 14.4796 120.569 13.3579 119.951 12.3022C119.333 11.2465 118.5 10.4188 117.456 9.80699ZM115.249 17.2867C115.027 17.6706 114.733 17.9765 114.367 18.1984C114.001 18.4203 113.593 18.5343 113.149 18.5343H109.772V13.4539H113.149C113.593 13.4539 114.001 13.5558 114.367 13.7598C114.733 13.9637 115.027 14.2456 115.249 14.6115C115.47 14.9774 115.584 15.4213 115.584 15.9491C115.584 16.4769 115.47 16.9028 115.249 17.2867Z" fill="black"/>
<path d="M142.108 11.5405C141.113 10.5448 139.949 9.777 138.611 9.23116C137.274 8.68533 135.804 8.40942 134.203 8.40942C132.601 8.40942 131.132 8.68533 129.794 9.23116C128.457 9.777 127.287 10.5508 126.297 11.5405C125.301 12.5361 124.534 13.6998 123.988 15.0374C123.442 16.375 123.166 17.8445 123.166 19.446C123.166 21.0475 123.442 22.5171 123.988 23.8547C124.534 25.1923 125.307 26.3619 126.297 27.3516C127.293 28.3473 128.457 29.1151 129.794 29.6609C131.132 30.2067 132.613 30.4826 134.233 30.4826C135.852 30.4826 137.274 30.2067 138.611 29.6609C139.949 29.1151 141.113 28.3413 142.108 27.3516C143.104 26.3559 143.866 25.1863 144.406 23.8367C144.945 22.4871 145.209 21.0235 145.209 19.44C145.209 17.8565 144.939 16.369 144.406 15.0314C143.866 13.6938 143.104 12.5242 142.108 11.5345V11.5405ZM139.523 21.9113C139.235 22.661 138.839 23.3148 138.323 23.8727C137.808 24.4305 137.196 24.8624 136.5 25.1623C135.804 25.4682 135.036 25.6181 134.203 25.6181C133.369 25.6181 132.607 25.4682 131.905 25.1623C131.204 24.8564 130.592 24.4305 130.064 23.8847C129.536 23.3388 129.134 22.685 128.864 21.9233C128.588 21.1615 128.451 20.3397 128.451 19.446C128.451 18.5523 128.588 17.7306 128.864 16.9808C129.14 16.231 129.536 15.5772 130.064 15.0194C130.592 14.4616 131.204 14.0297 131.905 13.7298C132.607 13.4239 133.369 13.2739 134.203 13.2739C135.036 13.2739 135.798 13.4239 136.5 13.7298C137.202 14.0357 137.808 14.4676 138.323 15.0194C138.839 15.5772 139.241 16.231 139.523 16.9808C139.805 17.7306 139.949 18.5523 139.949 19.446C139.949 20.3397 139.805 21.1615 139.523 21.9113Z" fill="black"/>
<path d="M163.09 14.1557C163.09 14.9894 163.09 15.7572 163.108 16.4649C163.12 17.1727 163.138 17.8325 163.168 18.4443C163.198 19.0501 163.24 19.65 163.288 20.2378C163.336 20.8256 163.396 21.4254 163.456 22.0312C163.468 22.1752 163.492 22.3251 163.504 22.4691L153.541 8.89527H148.916V30.1827H153.937V23.0629C153.937 22.5591 153.937 22.0972 153.919 21.6773C153.907 21.2635 153.895 20.8436 153.871 20.4117C153.847 19.9859 153.811 19.512 153.763 18.9842C153.709 18.4563 153.649 17.8565 153.577 17.1727C153.565 17.0768 153.559 16.9748 153.547 16.8788L163.42 30.1767H168.104V8.88927H163.084V14.1497L163.09 14.1557Z" fill="black"/>
<path d="M186.495 19.2001C185.835 18.6723 185.055 18.2284 184.155 17.8625C183.256 17.4966 182.242 17.2027 181.132 16.9808C180.646 16.9028 180.179 16.7948 179.735 16.6629C179.291 16.5309 178.895 16.369 178.547 16.177C178.199 15.9851 177.929 15.7632 177.725 15.5232C177.521 15.2773 177.419 14.9834 177.419 14.6415C177.419 14.2576 177.539 13.9277 177.785 13.6518C178.031 13.3759 178.367 13.166 178.805 13.016C179.237 12.866 179.765 12.7881 180.371 12.7881C180.976 12.7881 181.534 12.878 182.086 13.064C182.644 13.2439 183.172 13.5079 183.67 13.8557C184.167 14.1976 184.629 14.6355 185.055 15.1633L188.246 12.0923C187.742 11.3185 187.124 10.6647 186.405 10.1129C185.685 9.56706 184.821 9.14719 183.819 8.84728C182.818 8.55337 181.612 8.40942 180.215 8.40942C179.159 8.40942 178.145 8.56537 177.174 8.88327C176.202 9.19517 175.344 9.64504 174.606 10.2209C173.869 10.7967 173.281 11.4865 172.843 12.2902C172.405 13.094 172.189 13.9697 172.189 14.9234C172.189 15.8171 172.333 16.6209 172.615 17.3407C172.897 18.0605 173.329 18.6963 173.905 19.2541C174.48 19.8119 175.206 20.2858 176.076 20.6697C176.946 21.0535 177.971 21.3774 179.147 21.6414C179.573 21.7253 179.987 21.8213 180.395 21.9293C180.802 22.0432 181.186 22.1752 181.552 22.3251C181.918 22.4751 182.23 22.643 182.494 22.829C182.758 23.0089 182.968 23.2249 183.118 23.4648C183.268 23.7107 183.346 23.9806 183.346 24.2865C183.346 24.6944 183.226 25.0303 182.98 25.3062C182.734 25.5821 182.392 25.7861 181.942 25.93C181.498 26.074 181 26.14 180.454 26.14C179.357 26.14 178.301 25.906 177.275 25.4382C176.25 24.9703 175.23 24.0586 174.216 22.703L171.085 26.2599C171.775 27.1297 172.555 27.8854 173.425 28.5272C174.294 29.163 175.296 29.6549 176.424 29.9848C177.551 30.3207 178.811 30.4886 180.209 30.4886C181.828 30.4886 183.268 30.2187 184.509 29.6849C185.757 29.1451 186.741 28.3653 187.46 27.3456C188.18 26.3199 188.54 25.0723 188.54 23.5908C188.54 22.637 188.36 21.8033 188.006 21.0835C187.652 20.3637 187.142 19.7399 186.483 19.2121L186.495 19.2001Z" fill="black"/>
<path d="M229.154 19.3561C228.698 19.0262 228.182 18.7682 227.618 18.5643C228.332 18.2524 228.908 17.7965 229.339 17.1967C229.939 16.363 230.239 15.3433 230.239 14.1257C230.239 13.028 229.981 12.0923 229.465 11.3125C228.95 10.5328 228.182 9.93295 227.168 9.51908C226.154 9.10521 224.919 8.89527 223.455 8.89527H214.056V30.1827H223.755C224.871 30.1827 225.891 30.0508 226.814 29.7869C227.738 29.5229 228.542 29.1151 229.231 28.5692C229.921 28.0234 230.449 27.3456 230.815 26.5479C231.181 25.7501 231.361 24.8084 231.361 23.7347C231.361 22.805 231.169 21.9653 230.785 21.2275C230.401 20.4897 229.855 19.8659 229.16 19.3561H229.154ZM218.921 13.2079H222.538C223.431 13.2079 224.097 13.3939 224.547 13.7718C224.991 14.1497 225.219 14.6595 225.219 15.3073C225.219 15.7512 225.123 16.135 224.931 16.447C224.739 16.7589 224.457 17.0048 224.079 17.1787C223.701 17.3527 223.251 17.4366 222.723 17.4366H218.921V13.2079ZM225.944 24.7844C225.723 25.1383 225.411 25.4082 225.021 25.5881C224.625 25.7741 224.145 25.8641 223.575 25.8641H218.921V21.2995H223.419C224.007 21.2995 224.511 21.3834 224.943 21.5574C225.369 21.7313 225.699 21.9773 225.933 22.3012C226.166 22.6251 226.28 23.0209 226.28 23.4888C226.28 23.9986 226.166 24.4245 225.944 24.7784V24.7844Z" fill="black"/>
<path d="M240.244 8.88927H235.074V30.1827H249.733V25.6181H240.244V8.88927Z" fill="black"/>
<path d="M258.305 25.7741V21.4554H266.762V17.2567H258.305V13.3039H268.13V8.88927H253.29V30.1827H268.435V25.7741H258.305Z" fill="black"/>
<path d="M210.865 19.518C210.625 19.428 210.727 20.1898 210.361 19.8539C210.277 19.7759 210.787 19.428 210.697 19.3561C210.391 19.3261 210.049 19.1341 209.773 19.3561C209.869 18.6003 209.09 18.9062 208.52 18.8582C208.85 18.3844 208.466 18.6123 208.346 18.4203C208.016 17.8925 207.854 17.0828 207.506 16.4769C207.356 16.213 206.816 16.0451 207.014 15.3493L206.684 15.6852C206.654 15.4573 206.385 14.2516 206.325 14.1976C206.241 14.1257 205.983 14.1976 205.845 14.1796C206.181 13.7298 205.755 13.9337 205.683 13.7298C205.317 12.6561 204.771 12.4042 204.261 11.4985C204.177 11.3485 204.171 11.1746 204.171 11.0066L203.919 11.3425C203.661 11.0126 203.595 10.7127 203.331 10.3408C203.409 10.4188 203.176 10.6407 203.164 10.3408C203.08 10.4248 202.798 10.9166 202.828 10.5927C202.846 10.3828 203.08 10.0889 203.164 10.1729C202.648 9.57906 202.09 9.27915 201.49 8.83529L201.574 9.33314C201.196 8.57137 201.166 8.91926 200.566 8.91327C199.439 8.89527 198.299 8.82329 197.183 8.94326C197.045 8.95525 196.949 8.85928 196.883 8.85928C196.769 8.85328 196.829 9.06322 196.775 9.1172C196.727 9.16519 196.554 9.03323 196.47 9.09321C196.32 9.18918 195.774 9.93895 195.684 10.1369C195.498 10.5568 195.102 11.5465 195.3 11.9363C194.676 11.7924 195.042 12.0443 195.126 12.4462C195.144 12.5302 194.886 12.4762 194.808 12.6321C194.55 13.154 194.946 13.178 194.52 13.5558C194.478 13.5918 194.286 14.4676 194.466 14.6115C194.436 14.8334 194.196 14.4616 194.13 14.5275C193.992 14.6595 194.328 15.0134 194.46 15.1154L194.376 15.1933C193.974 14.7555 194.058 15.7452 193.956 16.1051C193.89 16.345 193.674 16.5189 193.644 16.6569C193.578 16.9268 193.788 17.1007 193.8 17.2807C193.8 17.4007 193.518 17.3227 193.459 17.4846C193.261 18.0245 192.937 19.8539 192.847 20.5017C192.817 20.7236 192.799 21.1195 192.949 21.3055C192.271 21.0895 192.847 21.6593 192.787 21.7193C192.565 21.9233 191.551 21.8933 191.281 22.1392C191.083 22.3191 191.179 22.703 190.861 22.3971C190.693 22.4691 190.879 22.5111 190.909 22.673C191.011 23.2369 191.035 23.8367 190.945 24.3945C191.515 24.0886 190.945 24.5625 190.945 24.5625C191.167 24.8624 190.873 26.4999 190.945 26.5718C190.969 26.5958 191.407 26.6498 191.449 26.4519C191.485 26.2839 191.365 26.2 191.617 26.2359L191.629 26.7338L191.911 26.6438C191.647 27.0637 192.163 26.7578 192.121 27.0697C191.989 27.0637 191.857 27.0577 191.773 27.1777C191.731 27.2316 191.503 28.3113 191.461 28.4972C191.365 28.9291 191.551 28.5692 191.791 28.6532C191.461 29.1151 191.425 29.6969 191.461 30.2487L191.791 30.1647C191.509 30.3747 191.377 32.3421 191.461 32.426C191.779 32.2701 192.685 32.456 192.889 32.408C192.931 32.396 192.817 31.9822 193.051 31.9282C193.201 31.8982 193.081 32.1201 193.171 32.2101C193.429 32.45 194.658 32.468 194.928 32.2101C195.054 32.0901 194.88 31.8022 195.474 31.9282L195.39 32.426C195.66 32.1741 195.744 31.6763 195.798 31.3284C195.996 29.9908 196.092 28.5032 196.35 27.2016C196.398 26.9557 196.662 25.8701 196.733 25.7321C196.997 25.2043 197.813 25.3182 197.963 25.1923C197.981 25.1743 198.029 24.6944 198.155 24.8924C198.191 24.9523 198.119 25.1743 198.155 25.2283C198.293 25.4322 198.323 24.9463 198.341 24.9223C198.365 24.8924 198.545 24.9943 198.665 24.9643C199.295 24.8384 200.116 24.5505 200.662 24.2206C200.668 24.2206 200.638 24.0526 200.746 24.0526C200.836 24.0886 200.83 24.1426 200.83 24.2206C201.256 24.0646 201.922 24.1066 202.39 23.8847C202.546 23.8067 202.486 23.5428 202.576 23.5608C202.888 23.6267 203.176 23.9866 203.194 23.4108C203.679 23.5248 204.351 23.4108 204.891 23.3448C205.059 23.3268 205.095 23.1349 205.179 23.2968C204.831 23.6867 205.347 24.0106 205.479 24.3405C205.689 24.8744 205.929 25.4922 206.025 26.062L206.361 25.894C206.187 26.3259 206.463 26.8358 206.696 27.2316C206.66 27.1957 206.72 27.0637 206.78 27.0637C206.882 27.0637 206.858 27.2256 206.864 27.2316C206.93 27.2916 206.966 27.3036 207.032 27.3996C207.098 27.4296 207.2 27.3636 207.2 27.5675C207.374 27.6095 207.866 27.7475 207.944 27.7475C208.124 27.7475 207.998 27.4656 208.04 27.3996C208.172 27.1837 208.184 27.7295 208.304 27.7475C208.418 27.7655 209.492 27.6035 209.534 27.5495C209.558 27.5195 209.438 27.3696 209.378 27.3096L209.456 27.2256C209.755 27.6935 209.737 27.8255 210.379 27.7235V27.2256L210.547 27.7295C211.183 27.8734 211.045 27.4896 211.219 26.9797H210.883C211.141 26.7878 211.189 26.6258 211.225 26.3199C211.399 24.7964 211.309 21.7253 210.967 20.2858C210.913 20.0578 210.925 19.7759 210.883 19.53L210.865 19.518ZM191.707 29.8948C191.599 29.8948 191.599 29.7269 191.707 29.7269C191.815 29.7269 191.815 29.8948 191.707 29.8948ZM191.791 32.0662C191.683 32.1981 191.515 31.8682 191.623 31.7303C191.731 31.5983 191.899 31.9282 191.791 32.0662ZM191.875 31.0645C191.767 31.0645 191.767 30.8965 191.875 30.8965C191.983 30.8965 191.983 31.0645 191.875 31.0645ZM192.043 27.7175C191.935 27.7175 191.935 27.5495 192.043 27.5495C192.151 27.5495 192.151 27.7175 192.043 27.7175ZM194.802 14.4976C194.91 14.3656 195.078 14.6955 194.97 14.8334C194.862 14.9654 194.694 14.6355 194.802 14.4976ZM194.22 28.0534C194.328 28.0534 194.328 28.2213 194.22 28.2213C194.112 28.2213 194.112 28.0534 194.22 28.0534ZM194.052 20.5197C194.16 20.5197 194.16 20.6876 194.052 20.6876C193.944 20.6876 193.944 20.5197 194.052 20.5197ZM194.052 23.2009C194.16 23.2009 194.16 23.3688 194.052 23.3688C193.944 23.3688 193.944 23.2009 194.052 23.2009ZM194.454 29.1271C194.478 28.9711 194.226 28.8271 194.382 28.7252L194.964 29.1451C194.826 29.253 194.76 29.0551 194.55 29.217C194.382 29.343 194.034 29.7929 193.968 29.313C193.95 29.187 194.406 29.469 194.454 29.1331V29.1271ZM194.802 30.0628C194.934 30.1707 194.604 30.3387 194.466 30.2307C194.334 30.1228 194.664 29.9548 194.802 30.0628ZM194.388 29.8948C194.28 29.8948 194.28 29.7269 194.388 29.7269C194.496 29.7269 194.496 29.8948 194.388 29.8948ZM194.298 30.1467L194.22 30.2247C194.034 29.9488 193.908 29.9908 193.638 29.9788C193.722 29.9188 193.842 29.7269 193.89 29.7269C193.944 29.7269 194.196 30.0688 194.304 30.1467H194.298ZM193.716 29.391C193.824 29.391 193.824 29.5589 193.716 29.5589C193.608 29.5589 193.608 29.391 193.716 29.391ZM193.884 28.7192C193.776 28.7192 193.776 28.5512 193.884 28.5512C193.992 28.5512 193.992 28.7192 193.884 28.7192ZM193.716 25.5402C193.824 25.5402 193.824 25.7081 193.716 25.7081C193.608 25.7081 193.608 25.5402 193.716 25.5402ZM193.632 27.0457C193.74 26.9137 193.908 27.2436 193.8 27.3816C193.692 27.5136 193.524 27.1837 193.632 27.0457ZM193.632 28.7252C193.764 28.8331 193.435 29.0011 193.297 28.8931C193.165 28.7852 193.494 28.6172 193.632 28.7252ZM193.548 29.223C193.441 29.223 193.441 29.0551 193.548 29.0551C193.656 29.0551 193.656 29.223 193.548 29.223ZM193.045 28.2213C193.153 28.2213 193.153 28.3893 193.045 28.3893C192.937 28.3893 192.937 28.2213 193.045 28.2213ZM193.297 29.0551L193.381 29.5529H192.793L193.291 29.0551H193.297ZM193.213 29.8948C193.105 29.8948 193.105 29.7269 193.213 29.7269C193.321 29.7269 193.321 29.8948 193.213 29.8948ZM192.547 29.8948C192.655 29.8948 192.655 30.0628 192.547 30.0628C192.439 30.0628 192.439 29.8948 192.547 29.8948ZM191.875 22.5291C191.983 22.5291 191.983 22.697 191.875 22.697C191.767 22.697 191.767 22.5291 191.875 22.5291ZM191.539 22.1932C191.647 22.1932 191.647 22.3611 191.539 22.3611C191.431 22.3611 191.431 22.1932 191.539 22.1932ZM191.539 26.044C191.431 26.044 191.431 25.8761 191.539 25.8761C191.647 25.8761 191.647 26.044 191.539 26.044ZM191.371 25.3722L191.293 25.2942C191.557 25.0543 191.323 24.7664 191.791 24.8744L191.371 25.3722ZM191.791 24.5385C191.659 24.4305 191.989 24.2626 192.127 24.3705C192.259 24.4785 191.929 24.6464 191.791 24.5385ZM192.211 32.0662C192.103 32.0662 192.103 31.8982 192.211 31.8982C192.319 31.8982 192.319 32.0662 192.211 32.0662ZM192.379 29.7269C192.271 29.7269 192.271 29.5589 192.379 29.5589C192.487 29.5589 192.487 29.7269 192.379 29.7269ZM192.463 31.3164L192.715 31.0645C192.949 31.0645 192.463 31.5503 192.463 31.3164ZM193.045 31.5683C192.937 31.5683 192.937 31.4004 193.045 31.4004C193.153 31.4004 193.153 31.5683 193.045 31.5683ZM193.045 31.2204L193.129 30.3927L192.631 30.6446L192.799 29.8888C193.069 29.8408 192.961 30.1947 193.123 30.3207C193.249 30.4227 193.471 30.2007 193.632 30.2247C193.716 30.5126 193.261 30.3087 193.303 30.4706C193.339 30.6326 193.53 30.9805 193.632 31.1484L193.045 31.2204ZM193.632 31.8982C193.351 31.9582 193.56 31.6403 193.303 31.4783L193.381 31.4004C193.56 31.5503 193.686 31.6523 193.632 31.8982ZM193.8 31.0645C193.908 30.9325 194.076 31.2624 193.968 31.4004C193.86 31.5323 193.692 31.2024 193.8 31.0645ZM194.052 32.0662C193.944 32.0662 193.944 31.8982 194.052 31.8982C194.16 31.8982 194.16 32.0662 194.052 32.0662ZM194.052 31.7303L193.974 31.6523C194.19 31.5563 194.112 31.2684 194.142 31.2324C194.28 31.0645 194.454 31.5323 194.058 31.7303H194.052ZM194.388 31.8982C194.28 31.8982 194.28 31.7303 194.388 31.7303C194.496 31.7303 194.496 31.8982 194.388 31.8982ZM193.8 30.3087C193.878 30.2427 194.262 30.3987 194.274 30.4227C194.34 30.5066 194.316 30.8905 194.466 31.0645L193.8 30.3087ZM194.55 31.5683C194.442 31.5683 194.442 31.4004 194.55 31.4004C194.658 31.4004 194.658 31.5683 194.55 31.5683ZM194.886 31.7303C194.778 31.7303 194.778 31.5623 194.886 31.5623C194.994 31.5623 194.994 31.7303 194.886 31.7303ZM195.054 31.3944C194.874 31.2444 194.748 31.1424 194.802 30.8965C195.084 30.8365 194.874 31.1544 195.132 31.3164L195.054 31.3944ZM194.472 30.7286V30.3927C194.784 30.3567 194.958 30.3867 195.138 30.6446L194.472 30.7286ZM195.39 18.0125C195.282 18.0125 195.282 17.8445 195.39 17.8445C195.498 17.8445 195.498 18.0125 195.39 18.0125ZM202.582 16.339C202.69 16.339 202.69 16.5069 202.582 16.5069C202.474 16.5069 202.474 16.339 202.582 16.339ZM202.42 10.3168C202.528 10.3168 202.528 10.4848 202.42 10.4848C202.312 10.4848 202.312 10.3168 202.42 10.3168ZM202.252 17.5086C202.144 17.5086 202.144 17.3407 202.252 17.3407C202.36 17.3407 202.36 17.5086 202.252 17.5086ZM202.252 9.81299C202.486 9.81299 202 10.2988 202 10.0649L202.252 9.81299ZM202.168 11.3185C202.3 11.4265 201.97 11.5944 201.832 11.4865C201.7 11.3785 202.03 11.2106 202.168 11.3185ZM201.916 14.8334C201.808 14.8334 201.808 14.6655 201.916 14.6655C202.024 14.6655 202.024 14.8334 201.916 14.8334ZM201.748 16.8428C201.64 16.8428 201.64 16.6749 201.748 16.6749C201.856 16.6749 201.856 16.8428 201.748 16.8428ZM201.832 10.8207V11.1566H201.748L201.496 10.8207H201.832ZM201.412 14.6655C201.52 14.6655 201.52 14.8334 201.412 14.8334C201.304 14.8334 201.304 14.6655 201.412 14.6655ZM201.076 10.6527L201.328 10.9047C201.328 11.1386 200.842 10.6527 201.076 10.6527ZM201.076 11.1566L201.328 11.4085C201.328 11.6424 200.842 11.1566 201.076 11.1566ZM201.244 15.5052C201.136 15.5052 201.136 15.3373 201.244 15.3373C201.352 15.3373 201.352 15.5052 201.244 15.5052ZM200.746 14.1617C200.638 14.1617 200.638 13.9937 200.746 13.9937C200.854 13.9937 200.854 14.1617 200.746 14.1617ZM200.746 15.1693C200.638 15.1693 200.638 15.0014 200.746 15.0014C200.854 15.0014 200.854 15.1693 200.746 15.1693ZM200.494 10.8207C200.602 10.6887 200.77 11.0186 200.662 11.1566C200.554 11.2885 200.386 10.9586 200.494 10.8207ZM200.578 13.3279C200.812 13.3279 200.326 13.8138 200.326 13.5798L200.578 13.3279ZM200.41 14.8334C200.302 14.8334 200.302 14.6655 200.41 14.6655C200.518 14.6655 200.518 14.8334 200.41 14.8334ZM199.991 13.9997C200.098 13.8677 200.266 14.1976 200.158 14.3356C200.05 14.4676 199.883 14.1377 199.991 13.9997ZM199.241 13.4959C199.349 13.4959 199.349 13.6638 199.241 13.6638C199.133 13.6638 199.133 13.4959 199.241 13.4959ZM199.241 14.1617C199.349 14.1617 199.349 14.3296 199.241 14.3296C199.133 14.3296 199.133 14.1617 199.241 14.1617ZM198.905 11.8224C199.013 11.8224 199.013 11.9903 198.905 11.9903C198.797 11.9903 198.797 11.8224 198.905 11.8224ZM198.905 15.0014C199.013 15.0014 199.013 15.1693 198.905 15.1693C198.797 15.1693 198.797 15.0014 198.905 15.0014ZM198.569 10.8147C198.677 10.8147 198.677 10.9826 198.569 10.9826C198.461 10.9826 198.461 10.8147 198.569 10.8147ZM198.569 16.6749C198.677 16.6749 198.677 16.8428 198.569 16.8428C198.461 16.8428 198.461 16.6749 198.569 16.6749ZM198.233 12.3262C198.341 12.3262 198.341 12.4942 198.233 12.4942C198.125 12.4942 198.125 12.3262 198.233 12.3262ZM197.399 10.3168C197.507 10.3168 197.507 10.4848 197.399 10.4848C197.291 10.4848 197.291 10.3168 197.399 10.3168ZM196.56 15.1693C196.668 15.1693 196.668 15.3373 196.56 15.3373C196.452 15.3373 196.452 15.1693 196.56 15.1693ZM196.56 15.8351C196.668 15.8351 196.668 16.0031 196.56 16.0031C196.452 16.0031 196.452 15.8351 196.56 15.8351ZM196.56 16.171C196.668 16.171 196.668 16.339 196.56 16.339C196.452 16.339 196.452 16.171 196.56 16.171ZM195.894 16.5069C196.002 16.5069 196.002 16.6749 195.894 16.6749C195.786 16.6749 195.786 16.5069 195.894 16.5069ZM195.894 17.6766C196.002 17.6766 196.002 17.8445 195.894 17.8445C195.786 17.8445 195.786 17.6766 195.894 17.6766ZM195.642 18.0125C195.924 17.9525 195.714 18.2704 195.972 18.4323L195.894 18.5103C195.714 18.3604 195.588 18.2584 195.642 18.0125ZM195.972 19.3501H195.888L195.636 19.0142H195.972V19.3501ZM196.056 18.8462C195.948 18.8462 195.948 18.6783 196.056 18.6783C196.164 18.6783 196.164 18.8462 196.056 18.8462ZM196.224 18.0125C196.116 18.0125 196.116 17.8445 196.224 17.8445C196.332 17.8445 196.332 18.0125 196.224 18.0125ZM196.392 9.98094C196.284 9.98094 196.284 9.81299 196.392 9.81299C196.5 9.81299 196.5 9.98094 196.392 9.98094ZM196.56 16.6749C196.668 16.6749 196.668 16.8428 196.56 16.8428C196.452 16.8428 196.452 16.6749 196.56 16.6749ZM196.811 18.6843C196.704 18.8162 196.536 18.4863 196.644 18.3484C196.751 18.2164 196.919 18.5463 196.811 18.6843ZM196.895 16.8428C196.787 16.8428 196.787 16.6749 196.895 16.6749C197.003 16.6749 197.003 16.8428 196.895 16.8428ZM196.895 13.16C196.787 13.16 196.787 12.992 196.895 12.992C197.003 12.992 197.003 13.16 196.895 13.16ZM196.895 10.3168C196.787 10.3168 196.787 10.1489 196.895 10.1489C197.003 10.1489 197.003 10.3168 196.895 10.3168ZM197.063 15.5052C196.955 15.5052 196.955 15.3373 197.063 15.3373C197.171 15.3373 197.171 15.5052 197.063 15.5052ZM197.063 10.9826C196.955 10.9826 196.955 10.8147 197.063 10.8147C197.171 10.8147 197.171 10.9826 197.063 10.9826ZM197.231 14.4976C197.123 14.4976 197.123 14.3296 197.231 14.3296C197.339 14.3296 197.339 14.4976 197.231 14.4976ZM197.231 11.3185C197.123 11.3185 197.123 11.1506 197.231 11.1506C197.339 11.1506 197.339 11.3185 197.231 11.3185ZM197.393 10.6527L197.975 11.0726L197.897 11.1506C197.735 10.9466 197.453 10.9526 197.315 10.7307L197.393 10.6527ZM197.897 18.8462C197.789 18.8462 197.789 18.6783 197.897 18.6783C198.005 18.6783 198.005 18.8462 197.897 18.8462ZM197.729 13.16C197.621 13.16 197.621 12.992 197.729 12.992C197.837 12.992 197.837 13.16 197.729 13.16ZM197.729 20.0219C197.621 20.0219 197.621 19.8539 197.729 19.8539C197.837 19.8539 197.837 20.0219 197.729 20.0219ZM197.567 23.0329C197.459 23.0329 197.459 22.865 197.567 22.865C197.675 22.865 197.675 23.0329 197.567 23.0329ZM197.483 22.697C197.351 22.5891 197.681 22.4211 197.819 22.5291C197.951 22.637 197.621 22.805 197.483 22.697ZM197.819 22.2832L198.071 22.0312C198.305 22.0312 197.819 22.5171 197.819 22.2832ZM198.233 23.3688C198.125 23.3688 198.125 23.2009 198.233 23.2009C198.341 23.2009 198.341 23.3688 198.233 23.3688ZM198.983 23.1169C198.983 23.3388 198.251 22.775 199.151 22.697C199.199 22.9969 198.611 22.721 198.983 23.1169ZM198.905 21.5274C199.013 21.5274 199.013 21.6953 198.905 21.6953C198.797 21.6953 198.797 21.5274 198.905 21.5274ZM199.739 23.0329C199.631 23.0329 199.631 22.865 199.739 22.865C199.847 22.865 199.847 23.0329 199.739 23.0329ZM199.739 21.6953C199.631 21.6953 199.631 21.5274 199.739 21.5274C199.847 21.5274 199.847 21.6953 199.739 21.6953ZM200.074 22.3611C199.967 22.3611 199.967 22.1932 200.074 22.1932C200.182 22.1932 200.182 22.3611 200.074 22.3611ZM200.41 21.6953C200.302 21.6953 200.302 21.5274 200.41 21.5274C200.518 21.5274 200.518 21.6953 200.41 21.6953ZM200.41 21.3594C200.302 21.3594 200.302 21.1915 200.41 21.1915C200.518 21.1915 200.518 21.3594 200.41 21.3594ZM200.746 22.3611C200.638 22.3611 200.638 22.1932 200.746 22.1932C200.854 22.1932 200.854 22.3611 200.746 22.3611ZM200.098 19.3441C199.973 19.3681 199.889 20.1238 199.817 19.3561L198.995 19.524L199.079 19.8479C198.755 19.572 198.329 19.8959 197.987 20.0159C197.813 19.8179 198.665 18.3004 198.155 17.9225C198.677 18.0904 198.791 17.3887 198.323 17.0888C198.299 16.9328 198.611 17.2087 198.737 17.0228C198.905 16.7828 199.079 16.153 198.821 15.9191L199.151 16.0091C199.181 15.7692 199.103 15.4932 199.151 15.2713C199.187 15.1034 199.559 15.3313 199.493 14.7555C199.469 14.5575 199.259 14.9474 199.157 14.7555L199.823 14.3356C199.829 14.5215 199.913 15.0734 200.02 15.1513C200.122 15.2233 200.356 15.1633 200.494 15.1753L200.578 15.8411L200.83 15.3373V16.339L201.136 16.249C200.974 16.5069 201.58 17.2747 201.754 17.3467C201.922 17.4127 201.706 16.9268 202.006 17.0108C201.874 17.3947 201.862 17.6346 202.006 18.0125H202.174L202.342 17.6766C202.342 18.0545 202.024 18.3784 202.51 18.5103L202.678 18.0065C202.666 19.2961 202.48 18.8342 201.598 19.0202C201.088 19.1281 200.614 19.2421 200.104 19.3381L200.098 19.3441ZM201.58 19.3501C201.472 19.3501 201.472 19.1821 201.58 19.1821C201.688 19.1821 201.688 19.3501 201.58 19.3501ZM201.496 21.9473L201.748 21.6953C201.982 21.6953 201.496 22.1812 201.496 21.9473ZM201.496 21.1915C201.364 21.0835 201.694 20.9156 201.832 21.0235C201.964 21.1315 201.634 21.2995 201.496 21.1915ZM202.084 21.0235C201.976 21.0235 201.976 20.8556 202.084 20.8556C202.192 20.8556 202.192 21.0235 202.084 21.0235ZM202.42 21.6953C202.312 21.6953 202.312 21.5274 202.42 21.5274C202.528 21.5274 202.528 21.6953 202.42 21.6953ZM202.666 21.1915C202.558 21.3235 202.39 20.9936 202.498 20.8556C202.606 20.7236 202.774 21.0535 202.666 21.1915ZM202.75 17.6766C202.642 17.6766 202.642 17.5086 202.75 17.5086C202.858 17.5086 202.858 17.6766 202.75 17.6766ZM202.75 16.8428C202.642 16.8428 202.642 16.6749 202.75 16.6749C202.858 16.6749 202.858 16.8428 202.75 16.8428ZM203.589 11.6544C203.697 11.6544 203.697 11.8224 203.589 11.8224C203.481 11.8224 203.481 11.6544 203.589 11.6544ZM203.589 12.6561C203.697 12.6561 203.697 12.8241 203.589 12.8241C203.481 12.8241 203.481 12.6561 203.589 12.6561ZM203.421 13.4959C203.529 13.4959 203.529 13.6638 203.421 13.6638C203.313 13.6638 203.313 13.4959 203.421 13.4959ZM203.17 12.1583C203.307 11.9903 203.481 12.4582 203.086 12.6561L203.008 12.5781C203.224 12.4822 203.146 12.1943 203.176 12.1583H203.17ZM202.918 11.6544C203.026 11.6544 203.026 11.8224 202.918 11.8224C202.81 11.8224 202.81 11.6544 202.918 11.6544ZM202.918 18.5163C203.026 18.5163 203.026 18.6843 202.918 18.6843C202.81 18.6843 202.81 18.5163 202.918 18.5163ZM203.17 21.8633C203.062 21.9952 202.894 21.6653 203.002 21.5274C203.11 21.3954 203.277 21.7253 203.17 21.8633ZM203.253 18.1804C203.146 18.1804 203.146 18.0125 203.253 18.0125C203.361 18.0125 203.361 18.1804 203.253 18.1804ZM203.253 17.8445C203.146 17.8445 203.146 17.6766 203.253 17.6766C203.361 17.6766 203.361 17.8445 203.253 17.8445ZM203.421 17.3407C203.529 17.3407 203.529 17.5086 203.421 17.5086C203.313 17.5086 203.313 17.3407 203.421 17.3407ZM203.505 18.0125C203.613 17.8805 203.781 18.2104 203.673 18.3484C203.565 18.4803 203.397 18.1504 203.505 18.0125ZM203.505 21.2755L203.757 21.0235C203.991 21.0235 203.505 21.5094 203.505 21.2755ZM203.757 21.6953C203.649 21.6953 203.649 21.5274 203.757 21.5274C203.865 21.5274 203.865 21.6953 203.757 21.6953ZM203.757 17.5086C203.649 17.5086 203.649 17.3407 203.757 17.3407C203.865 17.3407 203.865 17.5086 203.757 17.5086ZM203.925 16.0031C203.817 16.0031 203.817 15.8351 203.925 15.8351C204.033 15.8351 204.033 16.0031 203.925 16.0031ZM203.925 13.6638C203.817 13.6638 203.817 13.4959 203.925 13.4959C204.033 13.4959 204.033 13.6638 203.925 13.6638ZM203.925 13.3279C203.817 13.3279 203.817 13.16 203.925 13.16C204.033 13.16 204.033 13.3279 203.925 13.3279ZM204.087 16.339C203.979 16.339 203.979 16.171 204.087 16.171C204.195 16.171 204.195 16.339 204.087 16.339ZM206.097 16.0031C206.205 16.0031 206.205 16.171 206.097 16.171C205.989 16.171 205.989 16.0031 206.097 16.0031ZM204.255 17.8445C204.147 17.8445 204.147 17.6766 204.255 17.6766C204.363 17.6766 204.363 17.8445 204.255 17.8445ZM204.255 12.1583C204.147 12.1583 204.147 11.9903 204.255 11.9903C204.363 11.9903 204.363 12.1583 204.255 12.1583ZM204.423 16.6749C204.315 16.6749 204.315 16.5069 204.423 16.5069C204.531 16.5069 204.531 16.6749 204.423 16.6749ZM204.423 16.0031C204.315 16.0031 204.315 15.8351 204.423 15.8351C204.531 15.8351 204.531 16.0031 204.423 16.0031ZM204.423 14.4976C204.315 14.4976 204.315 14.3296 204.423 14.3296C204.531 14.3296 204.531 14.4976 204.423 14.4976ZM204.759 12.6561C204.651 12.6561 204.651 12.4882 204.759 12.4882C204.867 12.4882 204.867 12.6561 204.759 12.6561ZM204.927 13.3279C204.819 13.3279 204.819 13.16 204.927 13.16C205.035 13.16 205.035 13.3279 204.927 13.3279ZM205.095 16.171C204.987 16.171 204.987 16.0031 205.095 16.0031C205.203 16.0031 205.203 16.171 205.095 16.171ZM205.263 20.8556C205.155 20.8556 205.155 20.6876 205.263 20.6876C205.371 20.6876 205.371 20.8556 205.263 20.8556ZM205.263 18.1804C205.155 18.1804 205.155 18.0125 205.263 18.0125C205.371 18.0125 205.371 18.1804 205.263 18.1804ZM205.431 15.5052C205.323 15.5052 205.323 15.3373 205.431 15.3373C205.539 15.3373 205.539 15.5052 205.431 15.5052ZM205.431 13.4959C205.323 13.4959 205.323 13.3279 205.431 13.3279C205.539 13.3279 205.539 13.4959 205.431 13.4959ZM205.599 18.6843C205.491 18.6843 205.491 18.5163 205.599 18.5163C205.707 18.5163 205.707 18.6843 205.599 18.6843ZM205.599 15.8351C205.491 15.8351 205.491 15.6672 205.599 15.6672C205.707 15.6672 205.707 15.8351 205.599 15.8351ZM205.761 16.171C205.653 16.171 205.653 16.0031 205.761 16.0031C205.869 16.0031 205.869 16.171 205.761 16.171ZM205.929 15.3373C206.037 15.3373 206.037 15.5052 205.929 15.5052C205.821 15.5052 205.821 15.3373 205.929 15.3373ZM205.929 24.7064L206.181 24.9583C206.181 25.1923 205.695 24.7064 205.929 24.7064ZM206.265 15.3373C206.157 15.3373 206.157 15.1693 206.265 15.1693C206.373 15.1693 206.373 15.3373 206.265 15.3373ZM206.433 15.6672C206.325 15.6672 206.325 15.4992 206.433 15.4992C206.54 15.4992 206.54 15.6672 206.433 15.6672ZM206.768 17.8445C206.66 17.8445 206.66 17.6766 206.768 17.6766C206.876 17.6766 206.876 17.8445 206.768 17.8445ZM206.768 16.8428C206.66 16.8428 206.66 16.6749 206.768 16.6749C206.876 16.6749 206.876 16.8428 206.768 16.8428ZM207.272 16.6749C207.164 16.6749 207.164 16.5069 207.272 16.5069C207.38 16.5069 207.38 16.6749 207.272 16.6749ZM207.602 18.6843C207.494 18.6843 207.494 18.5163 207.602 18.5163C207.71 18.5163 207.71 18.6843 207.602 18.6843ZM207.77 26.7158C207.662 26.7158 207.662 26.5478 207.77 26.5478C207.878 26.5478 207.878 26.7158 207.77 26.7158ZM207.938 18.5163C207.83 18.5163 207.83 18.3484 207.938 18.3484C208.046 18.3484 208.046 18.5163 207.938 18.5163ZM208.778 19.0142C208.886 19.0142 208.886 19.1821 208.778 19.1821C208.67 19.1821 208.67 19.0142 208.778 19.0142ZM208.61 24.8744C208.718 24.8744 208.718 25.0423 208.61 25.0423C208.502 25.0423 208.502 24.8744 208.61 24.8744ZM208.442 27.0457C208.334 27.0457 208.334 26.8777 208.442 26.8777C208.55 26.8777 208.55 27.0457 208.442 27.0457ZM208.688 26.3799C208.58 26.5119 208.412 26.182 208.52 26.044C208.628 25.912 208.796 26.2419 208.688 26.3799ZM208.526 25.3782L208.694 25.7141L209.024 25.3782C209.21 26.128 208.34 26.128 208.526 25.3782ZM209.108 27.3816C209 27.3816 209 27.2136 209.108 27.2136C209.216 27.2136 209.216 27.3816 209.108 27.3816ZM209.444 20.5257C209.737 20.7656 209.737 20.7836 209.444 21.0235C209.282 20.8676 209.684 20.8136 209.366 20.6037L209.444 20.5257ZM209.444 24.0346C209.336 24.0346 209.336 23.8667 209.444 23.8667C209.552 23.8667 209.552 24.0346 209.444 24.0346ZM209.444 24.8744C209.336 24.8744 209.336 24.7064 209.444 24.7064C209.552 24.7064 209.552 24.8744 209.444 24.8744ZM209.276 26.8837C209.168 26.8837 209.168 26.7158 209.276 26.7158C209.384 26.7158 209.384 26.8837 209.276 26.8837ZM209.612 26.7158C209.504 26.7158 209.504 26.5478 209.612 26.5478C209.719 26.5478 209.719 26.7158 209.612 26.7158ZM209.276 26.5418L209.198 26.4639L209.618 26.044L209.696 26.122L209.276 26.5418ZM209.779 20.5197C209.672 20.5197 209.672 20.3518 209.779 20.3518C209.887 20.3518 209.887 20.5197 209.779 20.5197ZM209.947 24.8744C209.839 24.8744 209.839 24.7064 209.947 24.7064C210.055 24.7064 210.055 24.8744 209.947 24.8744ZM209.947 20.6936L210.199 20.9456C210.199 21.1795 209.713 20.6936 209.947 20.6936ZM210.283 21.5274C210.175 21.5274 210.175 21.3594 210.283 21.3594C210.391 21.3594 210.391 21.5274 210.283 21.5274ZM210.613 20.1898C210.505 20.1898 210.505 20.0219 210.613 20.0219C210.721 20.0219 210.721 20.1898 210.613 20.1898ZM210.781 26.7158C210.673 26.7158 210.673 26.5478 210.781 26.5478C210.889 26.5478 210.889 26.7158 210.781 26.7158ZM210.781 21.0235C210.673 21.0235 210.673 20.8556 210.781 20.8556C210.889 20.8556 210.889 21.0235 210.781 21.0235Z" fill="black"/>
<path d="M62.6387 27.7715C62.6387 27.7175 62.5967 26.7398 62.5847 26.6858C62.5488 26.5539 62.4408 26.3559 62.3028 26.224C62.3148 26.224 62.3328 26.224 62.3388 26.224C62.2848 26.158 62.1949 26.092 62.1709 26.056C62.1829 26.062 62.1769 26.092 62.1709 26.122C62.1049 26.086 62.0329 26.074 61.9609 26.086L62.2968 25.9241C62.3148 25.7261 62.0329 25.6841 61.9609 25.6002C62.0029 25.6421 61.9429 25.7261 61.877 25.7621C61.769 25.7621 61.805 25.6062 61.793 25.6002C61.649 25.5582 61.4511 25.6841 61.4571 25.5222C61.4571 25.3962 61.727 25.4022 61.793 25.4442C61.769 25.4082 61.847 25.2403 61.769 25.1503C61.607 24.9704 61.1752 25.1083 61.1512 25.0903C61.0612 25.0003 61.0132 24.6524 60.7913 24.5565L61.2891 24.8024C61.4091 24.2806 60.7733 24.1126 60.6114 23.8847C60.5154 23.7467 60.5214 23.5308 60.3594 23.3509C60.1855 23.1589 59.4537 22.835 59.7776 22.6191L59.6996 22.5411L59.2798 22.781L59.3577 22.4151L59.1838 22.4931C59.3697 22.1272 58.9379 22.2412 58.9559 22.1392C58.9739 22.0433 59.1898 21.8153 59.1058 21.7373C59.0698 21.7014 58.8239 21.6954 58.6799 21.5754C58.506 21.4314 58.464 21.1495 58.41 21.1075C58.35 21.0656 58.2001 21.3055 58.1101 21.1615C58.3201 20.4237 58.392 20.7057 58.8959 20.4657C59.2018 20.3218 59.7056 20.0639 59.9456 19.8599C60.2934 19.56 60.3414 19.0322 60.7853 19.3021C60.7853 18.8102 60.8153 18.4504 61.2891 18.2224C62.0389 16.5189 62.2728 12.0623 61.2532 11.4325C61.1392 11.3605 60.8633 11.3425 60.8033 11.1326C60.7133 10.8207 61.1212 10.4128 60.2934 10.1009L60.1255 10.7487L60.2934 9.77702C59.8016 10.1129 60.0655 9.67505 59.6876 9.47711C59.3158 9.28517 58.1581 8.99726 57.7082 8.96127C55.0391 8.75733 51.6201 8.96127 49.0169 9.44712C48.873 9.47711 48.9329 9.78902 48.843 9.77102C47.9972 9.57908 48.3331 9.33316 47.9972 8.95527C47.8533 8.79332 47.6493 8.97327 47.6074 8.93728C47.5354 8.8713 47.5294 8.66736 47.4154 8.56539C47.3314 8.49341 46.2458 8.5354 46.0718 8.64937C46.0298 8.67336 46.0238 8.81132 45.9878 8.81132C45.9519 8.81132 45.9519 8.67936 45.9039 8.64937C45.442 8.34346 45.2801 8.5474 44.9022 8.81132C45.2201 8.27748 43.2827 8.57739 43.2287 8.66136C43.2107 8.69135 43.4986 9.13522 43.0608 8.81132C43.0068 9.81301 43.0907 10.8027 43.1447 11.8044C43.1507 11.9424 43.0548 12.1043 43.0548 12.2842C43.0548 12.4822 43.3007 12.0983 43.3906 12.2842C43.0068 12.5302 43.0068 12.8721 43.3127 13.184C43.4446 13.3159 43.6126 13.196 43.6546 13.214C43.7205 13.238 43.5646 13.4419 43.5886 13.4719C43.6486 13.5499 44.3983 13.7118 44.6443 13.9817C44.8842 14.2516 45.2741 15.1394 45.3221 15.5113C45.4 16.0931 45.556 15.9551 45.55 15.9851C45.394 16.8309 45.6939 17.4547 45.7359 18.2524C45.8979 21.0416 45.562 23.4648 45.2621 26.176C45.1901 26.8658 45.1721 28.8991 45.2201 29.5649C45.2381 29.7749 45.2141 29.9128 45.3101 30.1288C45.358 30.2367 45.502 30.3987 45.562 30.1768C45.652 29.8169 45.61 30.0448 45.9819 30.1288C46.4437 30.2367 45.9938 29.9128 46.1498 29.8049L46.4857 30.2907L46.6536 29.9668C46.9895 30.4887 47.2355 30.0628 47.6613 29.8049L47.7393 29.8828C47.6973 29.9368 47.6373 29.9848 47.6133 30.0448C47.6014 30.0808 47.9432 30.2727 47.9972 30.2907C48.1532 30.3447 47.9972 29.9488 48.1652 29.9668C48.3391 29.9488 48.1652 30.3027 48.3211 30.2727C48.693 30.2067 49.0409 30.1828 49.4128 30.1228C49.4368 29.277 49.5508 28.4493 49.7607 27.6335L49.9286 21.8993C50.0066 21.8213 50.7624 22.2052 50.9783 22.2712C51.1403 22.3252 51.3862 22.2292 51.4102 22.2592C51.5661 22.4571 51.2302 22.6371 51.944 22.3791C51.7041 22.841 51.944 22.5531 52.112 22.6431C52.4059 22.799 52.3219 22.817 52.6998 22.919C52.7478 22.931 52.6218 23.2729 52.8677 23.3449C53.5875 22.6671 52.9577 23.3748 53.1916 23.6748C53.2816 23.7887 53.5155 23.8187 53.6235 23.9147C54.1153 24.3945 54.9671 25.5822 55.231 25.9301C55.345 26.086 55.5849 26.116 55.7049 26.266C56.0168 26.6438 56.0707 27.2497 56.4666 26.9018C56.4786 27.0757 56.4246 27.2796 56.4666 27.4476C56.4786 27.4956 57.0005 27.9814 57.0964 28.0774C57.2284 28.2154 57.2884 28.5333 57.4743 28.7672C57.8882 29.283 58.1161 28.9771 58.1401 29.0071C58.1761 29.0431 58.1941 29.7869 58.3141 29.9788C58.9978 29.6369 58.7459 30.1168 58.9079 30.1468C59.3217 30.2247 59.4597 30.1708 59.5677 29.8169L59.9036 30.1408L59.8196 29.8229C59.9276 29.8229 60.0475 29.8049 60.1555 29.8229C60.1015 29.517 59.7656 29.7989 59.8196 29.499C60.0235 29.457 60.1735 29.6189 60.3234 29.6609C60.2155 29.0791 60.4854 29.5829 60.7493 29.343C60.5694 29.8349 60.9712 29.511 60.9952 29.8229C60.7673 29.7989 60.5454 29.7269 60.3294 29.6609C60.3474 29.7449 60.4254 29.8409 60.4974 29.9068L60.4194 29.9848C60.3534 29.9188 60.2515 29.8349 60.1675 29.8229C60.1855 29.9188 60.1375 30.1168 60.1675 30.1468C60.2215 30.2067 60.6173 30.0628 60.7493 30.0628C60.9592 30.0688 61.1692 30.1528 61.4151 30.1528C61.805 30.1528 62.1949 29.9488 62.6747 30.1408C62.3688 29.7449 62.6927 28.8991 62.6387 28.6292C62.6027 28.4553 62.1529 28.1854 62.3748 27.9035C62.4048 27.8675 62.6627 27.9154 62.6747 27.7835L62.6387 27.7715ZM60.5454 18.8282C60.4374 18.8282 60.4374 18.6663 60.5454 18.6663C60.6533 18.6663 60.6533 18.8282 60.5454 18.8282ZM60.8813 15.1094C60.7733 15.1094 60.7733 14.9474 60.8813 14.9474C60.9892 14.9474 60.9892 15.1094 60.8813 15.1094ZM61.2112 16.405C61.3191 16.405 61.3191 16.5669 61.2112 16.5669C61.1032 16.5669 61.1032 16.405 61.2112 16.405ZM61.0492 17.6946C61.1572 17.6946 61.1572 17.8565 61.0492 17.8565C60.9412 17.8565 60.9412 17.6946 61.0492 17.6946ZM60.8813 12.5302C60.9892 12.5302 60.9892 12.6921 60.8813 12.6921C60.7733 12.6921 60.7733 12.5302 60.8813 12.5302ZM60.6293 13.01C60.7373 12.8841 60.9053 13.202 60.7973 13.3339C60.6893 13.4599 60.5214 13.142 60.6293 13.01ZM60.5454 17.3707C60.4374 17.3707 60.4374 17.2087 60.5454 17.2087C60.6533 17.2087 60.6533 17.3707 60.5454 17.3707ZM60.2934 12.5302C60.4014 12.4042 60.5694 12.7221 60.4614 12.8541C60.3534 12.98 60.1855 12.6621 60.2934 12.5302ZM60.2095 11.8824C60.3174 11.8824 60.3174 12.0443 60.2095 12.0443C60.1015 12.0443 60.1015 11.8824 60.2095 11.8824ZM60.2095 13.4959C60.3174 13.4959 60.3174 13.6578 60.2095 13.6578C60.1015 13.6578 60.1015 13.4959 60.2095 13.4959ZM59.7056 13.3339C59.5977 13.3339 59.5977 13.172 59.7056 13.172C59.8136 13.172 59.8136 13.3339 59.7056 13.3339ZM59.7056 11.3965C59.5977 11.3965 59.5977 11.2346 59.7056 11.2346C59.8136 11.2346 59.8136 11.3965 59.7056 11.3965ZM59.8736 17.0528C59.7656 17.0528 59.7656 16.8908 59.8736 16.8908C59.9815 16.8908 59.9815 17.0528 59.8736 17.0528ZM60.0415 11.5585C60.1495 11.5585 60.1495 11.7204 60.0415 11.7204C59.9336 11.7204 59.9336 11.5585 60.0415 11.5585ZM60.0415 17.8565C60.1495 17.8565 60.1495 18.0185 60.0415 18.0185C59.9336 18.0185 59.9336 17.8565 60.0415 17.8565ZM59.8736 14.6295C59.7656 14.6295 59.7656 14.4676 59.8736 14.4676C59.9815 14.4676 59.9815 14.6295 59.8736 14.6295ZM59.8736 10.1069C60.1075 10.1069 59.6217 10.5748 59.6217 10.3468L59.8736 10.1069ZM59.5437 9.62107C59.6516 9.62107 59.6516 9.78302 59.5437 9.78302C59.4357 9.78302 59.4357 9.62107 59.5437 9.62107ZM59.5437 14.7915C59.6516 14.7915 59.6516 14.9534 59.5437 14.9534C59.4357 14.9534 59.4357 14.7915 59.5437 14.7915ZM59.5437 15.4333C59.6516 15.4333 59.6516 15.5952 59.5437 15.5952C59.4357 15.5952 59.4357 15.4333 59.5437 15.4333ZM59.6217 18.1804C59.5137 18.3064 59.3457 17.9885 59.4537 17.8565C59.5617 17.7306 59.7296 18.0485 59.6217 18.1804ZM59.3757 13.4959C59.6097 13.4959 59.1238 13.9637 59.1238 13.7358L59.3757 13.4959ZM59.0398 9.78302C59.1478 9.78302 59.1478 9.94497 59.0398 9.94497C58.9319 9.94497 58.9319 9.78302 59.0398 9.78302ZM59.0398 10.9107C59.1478 10.9107 59.1478 11.0726 59.0398 11.0726C58.9319 11.0726 58.9319 10.9107 59.0398 10.9107ZM58.8719 20.1178C58.9799 20.1178 58.9799 20.2798 58.8719 20.2798C58.7639 20.2798 58.7639 20.1178 58.8719 20.1178ZM58.7879 18.5823L58.2901 18.9842C58.1821 18.5283 58.464 18.7563 58.7099 18.5043L58.7879 18.5823ZM58.536 13.9817C58.644 13.9817 58.644 14.1437 58.536 14.1437C58.428 14.1437 58.428 13.9817 58.536 13.9817ZM58.536 15.5952C58.644 15.5952 58.644 15.7572 58.536 15.7572C58.428 15.7572 58.428 15.5952 58.536 15.5952ZM58.368 11.0726C58.476 11.0726 58.476 11.2346 58.368 11.2346C58.2601 11.2346 58.2601 11.0726 58.368 11.0726ZM58.2001 15.5952C58.3081 15.5952 58.3081 15.7572 58.2001 15.7572C58.0921 15.7572 58.0921 15.5952 58.2001 15.5952ZM43.2287 10.9107C43.3367 10.7847 43.5046 11.1026 43.3966 11.2346C43.2887 11.3605 43.1207 11.0426 43.2287 10.9107ZM43.4806 12.8481C43.3727 12.8481 43.3727 12.6861 43.4806 12.6861C43.5886 12.6861 43.5886 12.8481 43.4806 12.8481ZM43.8105 10.9107C43.7026 10.9107 43.7026 10.7487 43.8105 10.7487C43.9185 10.7487 43.9185 10.9107 43.8105 10.9107ZM43.9785 10.5928C43.8705 10.5928 43.8705 10.4308 43.9785 10.4308C44.0864 10.4308 44.0864 10.5928 43.9785 10.5928ZM44.6503 9.45912C44.7582 9.45912 44.7582 9.62107 44.6503 9.62107C44.5423 9.62107 44.5423 9.45912 44.6503 9.45912ZM44.7342 11.8824C44.6263 12.0083 44.4583 11.6904 44.5663 11.5585C44.6743 11.4325 44.8422 11.7504 44.7342 11.8824ZM44.8962 10.5868C44.7882 10.7127 44.6203 10.3948 44.7282 10.2629C44.8362 10.1369 45.0042 10.4548 44.8962 10.5868ZM45.652 29.8109C45.544 29.8109 45.544 29.6489 45.652 29.6489C45.7599 29.6489 45.7599 29.8109 45.652 29.8109ZM45.484 9.94497C45.376 9.94497 45.376 9.78302 45.484 9.78302C45.592 9.78302 45.592 9.94497 45.484 9.94497ZM45.8199 9.62107C45.7119 9.62107 45.7119 9.45912 45.8199 9.45912C45.9279 9.45912 45.9279 9.62107 45.8199 9.62107ZM46.4917 26.5779C46.5997 26.5779 46.5997 26.7398 46.4917 26.7398C46.3837 26.7398 46.3837 26.5779 46.4917 26.5779ZM46.4917 27.7115C46.5997 27.7115 46.5997 27.8735 46.4917 27.8735C46.3837 27.8735 46.3837 27.7115 46.4917 27.7115ZM46.1558 27.5496C46.2638 27.5496 46.2638 27.7115 46.1558 27.7115C46.0478 27.7115 46.0478 27.5496 46.1558 27.5496ZM45.9878 9.13522C45.8799 9.13522 45.8799 8.97327 45.9878 8.97327C46.0958 8.97327 46.0958 9.13522 45.9878 9.13522ZM46.0718 29.6429V29.241L46.5757 29.1631L46.0718 29.6489V29.6429ZM46.2398 29.0011V28.6772H46.5757L46.2398 29.0011ZM57.4503 20.7656C57.5583 20.6397 57.7262 20.9576 57.6183 21.0895C57.5103 21.2155 57.3424 20.8976 57.4503 20.7656ZM57.1984 15.2713C57.3064 15.2713 57.3064 15.4333 57.1984 15.4333C57.0904 15.4333 57.0904 15.2713 57.1984 15.2713ZM56.5266 9.13522C56.6346 9.13522 56.6346 9.29717 56.5266 9.29717C56.4186 9.29717 56.4186 9.13522 56.5266 9.13522ZM56.5266 10.7487C56.6346 10.7487 56.6346 10.9107 56.5266 10.9107C56.4186 10.9107 56.4186 10.7487 56.5266 10.7487ZM56.0288 9.94497C56.1367 9.94497 56.1367 10.1069 56.0288 10.1069C55.9208 10.1069 55.9208 9.94497 56.0288 9.94497ZM56.0288 11.8824C56.1367 11.8824 56.1367 12.0443 56.0288 12.0443C55.9208 12.0443 55.9208 11.8824 56.0288 11.8824ZM55.8608 11.0726C55.9688 11.0726 55.9688 11.2346 55.8608 11.2346C55.7528 11.2346 55.7528 11.0726 55.8608 11.0726ZM55.6929 10.7487C55.8008 10.7487 55.8008 10.9107 55.6929 10.9107C55.5849 10.9107 55.5849 10.7487 55.6929 10.7487ZM55.5249 10.4308C55.6329 10.4308 55.6329 10.5928 55.5249 10.5928C55.4169 10.5928 55.4169 10.4308 55.5249 10.4308ZM55.189 10.7547L55.6089 11.4025L54.7751 11.0786L55.195 10.7547H55.189ZM54.4393 10.9107H54.6072V11.3965H54.4393V10.9107ZM53.5155 10.2689C53.6235 10.2689 53.6235 10.4308 53.5155 10.4308C53.4076 10.4308 53.4076 10.2689 53.5155 10.2689ZM53.5995 10.9107C53.5995 10.9107 53.5755 10.7547 53.6835 10.7487C53.7495 10.7847 53.7375 10.8867 53.7675 10.9107C53.8814 10.9946 54.1034 11.0366 54.1034 11.2346H53.4316C53.3356 10.9227 53.5695 10.9467 53.5995 10.9107ZM53.5155 11.5585C53.4076 11.5585 53.4076 11.3965 53.5155 11.3965C53.6235 11.3965 53.6235 11.5585 53.5155 11.5585ZM53.1796 11.0726C53.2876 11.0726 53.2876 11.2346 53.1796 11.2346C53.0717 11.2346 53.0717 11.0726 53.1796 11.0726ZM52.7658 10.9167C52.8977 11.0246 52.5678 11.1806 52.4299 11.0786C52.2979 10.9707 52.6278 10.8147 52.7658 10.9167ZM52.4299 11.3965C52.2979 11.2886 52.6278 11.1326 52.7658 11.2346C52.8977 11.3425 52.5678 11.4985 52.4299 11.3965ZM52.6818 13.3339C52.5738 13.3339 52.5738 13.172 52.6818 13.172C52.7898 13.172 52.7898 13.3339 52.6818 13.3339ZM52.3459 10.4308C52.4539 10.4308 52.4539 10.5928 52.3459 10.5928C52.2379 10.5928 52.2379 10.4308 52.3459 10.4308ZM52.01 11.0726C52.118 11.0726 52.118 11.2346 52.01 11.2346C51.902 11.2346 51.902 11.0726 52.01 11.0726ZM51.842 11.7204C51.95 11.7204 51.95 11.8824 51.842 11.8824C51.7341 11.8824 51.7341 11.7204 51.842 11.7204ZM51.6741 11.2346C51.7821 11.2346 51.7821 11.3965 51.6741 11.3965C51.5661 11.3965 51.5661 11.2346 51.6741 11.2346ZM51.4282 11.5585C51.5361 11.4325 51.7041 11.7504 51.5961 11.8824C51.4882 12.0083 51.3202 11.6904 51.4282 11.5585ZM51.0923 11.3965H51.2602V11.8824H51.0923V11.3965ZM50.5045 11.8824C50.6124 11.8824 50.6124 12.0443 50.5045 12.0443C50.3965 12.0443 50.3965 11.8824 50.5045 11.8824ZM50.1686 11.7204C50.2765 11.7204 50.2765 11.8824 50.1686 11.8824C50.0606 11.8824 50.0606 11.7204 50.1686 11.7204ZM50.1686 12.0443C50.2765 12.0443 50.2765 12.2063 50.1686 12.2063C50.0606 12.2063 50.0606 12.0443 50.1686 12.0443ZM50.0006 10.9107C50.1086 10.9107 50.1086 11.0726 50.0006 11.0726C49.8926 11.0726 49.8926 10.9107 50.0006 10.9107ZM49.8387 11.2346C49.9466 11.2346 49.9466 11.3965 49.8387 11.3965C49.7307 11.3965 49.7307 11.2346 49.8387 11.2346ZM49.8387 11.8824C49.9466 11.8824 49.9466 12.0443 49.8387 12.0443C49.7307 12.0443 49.7307 11.8824 49.8387 11.8824ZM48.9989 27.8675C49.1069 27.8675 49.1069 28.0294 48.9989 28.0294C48.891 28.0294 48.891 27.8675 48.9989 27.8675ZM48.747 17.8565C48.879 17.9645 48.5491 18.1205 48.4111 18.0185C48.2791 17.9105 48.609 17.7546 48.747 17.8565ZM48.663 18.9902C48.5551 18.9902 48.5551 18.8282 48.663 18.8282C48.771 18.8282 48.771 18.9902 48.663 18.9902ZM48.4951 24.9644C48.3871 24.9644 48.3871 24.8024 48.4951 24.8024C48.603 24.8024 48.603 24.9644 48.4951 24.9644ZM48.4951 15.1094C48.603 15.1094 48.603 15.2713 48.4951 15.2713C48.3871 15.2713 48.3871 15.1094 48.4951 15.1094ZM48.4951 15.5952C48.603 15.5952 48.603 15.7572 48.4951 15.7572C48.3871 15.7572 48.3871 15.5952 48.4951 15.5952ZM48.4171 17.3707C48.5251 17.2447 48.693 17.5626 48.5851 17.6946C48.4771 17.8205 48.3091 17.5026 48.4171 17.3707ZM48.3331 19.9559C48.4411 19.9559 48.4411 20.1178 48.3331 20.1178C48.2252 20.1178 48.2252 19.9559 48.3331 19.9559ZM48.3331 24.1546C48.4411 24.1546 48.4411 24.3166 48.3331 24.3166C48.2252 24.3166 48.2252 24.1546 48.3331 24.1546ZM48.3331 27.3876C48.4411 27.3876 48.4411 27.5496 48.3331 27.5496C48.2252 27.5496 48.2252 27.3876 48.3331 27.3876ZM48.0812 16.0811H48.2492V16.5669H48.0812V16.0811ZM48.1652 22.3791C48.0572 22.3791 48.0572 22.2172 48.1652 22.2172C48.2731 22.2172 48.2731 22.3791 48.1652 22.3791ZM47.9972 14.4676C48.1052 14.4676 48.1052 14.6295 47.9972 14.6295C47.8893 14.6295 47.8893 14.4676 47.9972 14.4676ZM47.9972 20.9276C48.1052 20.9276 48.1052 21.0895 47.9972 21.0895C47.8893 21.0895 47.8893 20.9276 47.9972 20.9276ZM47.9133 24.6405H48.0812V25.1263H47.9133V24.6405ZM47.9972 26.092C47.8893 26.092 47.8893 25.9301 47.9972 25.9301C48.1052 25.9301 48.1052 26.092 47.9972 26.092ZM47.8293 15.5952C47.9372 15.5952 47.9372 15.7572 47.8293 15.7572C47.7213 15.7572 47.7213 15.5952 47.8293 15.5952ZM47.7453 26.5779H48.2492V26.7398H47.7453V26.5779ZM48.1652 27.2257C48.0572 27.2257 48.0572 27.0637 48.1652 27.0637C48.2731 27.0637 48.2731 27.2257 48.1652 27.2257ZM47.6613 17.0528C47.7693 17.0528 47.7693 17.2147 47.6613 17.2147C47.5534 17.2147 47.5534 17.0528 47.6613 17.0528ZM47.6613 19.3081C47.7693 19.3081 47.7693 19.47 47.6613 19.47C47.5534 19.47 47.5534 19.3081 47.6613 19.3081ZM47.6613 27.2257C47.7693 27.2257 47.7693 27.3876 47.6613 27.3876C47.5534 27.3876 47.5534 27.2257 47.6613 27.2257ZM47.1575 17.3707C47.2655 17.3707 47.2655 17.5326 47.1575 17.5326C47.0495 17.5326 47.0495 17.3707 47.1575 17.3707ZM47.1575 24.6405C47.2655 24.6405 47.2655 24.8024 47.1575 24.8024C47.0495 24.8024 47.0495 24.6405 47.1575 24.6405ZM47.1575 26.7398C47.5534 26.9677 47.2055 27.1597 47.2415 27.5436H47.0735L47.1575 26.7398ZM46.9895 8.81132C47.0975 8.81132 47.0975 8.97327 46.9895 8.97327C46.8816 8.97327 46.8816 8.81132 46.9895 8.81132ZM46.9895 18.0185C47.0975 18.0185 47.0975 18.1804 46.9895 18.1804C46.8816 18.1804 46.8816 18.0185 46.9895 18.0185ZM46.9895 18.3424C47.0975 18.3424 47.0975 18.5043 46.9895 18.5043C46.8816 18.5043 46.8816 18.3424 46.9895 18.3424ZM46.8216 22.0552C46.9296 22.0552 46.9296 22.2172 46.8216 22.2172C46.7136 22.2172 46.7136 22.0552 46.8216 22.0552ZM46.8216 23.5068C46.9296 23.5068 46.9296 23.6688 46.8216 23.6688C46.7136 23.6688 46.7136 23.5068 46.8216 23.5068ZM46.7436 27.0637C46.8516 26.9377 47.0195 27.2556 46.9116 27.3876C46.8036 27.5136 46.6357 27.1957 46.7436 27.0637ZM46.8216 29.487C46.7136 29.487 46.7136 29.325 46.8216 29.325C46.9296 29.325 46.9296 29.487 46.8216 29.487ZM46.7436 28.3533C46.8516 28.2274 47.0195 28.5453 46.9116 28.6772C46.8036 28.8032 46.6357 28.4853 46.7436 28.3533ZM46.9895 29.9668C46.8816 29.9668 46.8816 29.8049 46.9895 29.8049C47.0975 29.8049 47.0975 29.9668 46.9895 29.9668ZM47.0735 29.1631C46.9356 29.325 46.7616 28.8692 47.1575 28.6832L47.2355 28.7612C47.0195 28.8512 47.0975 29.1331 47.0675 29.1631H47.0735ZM47.1575 28.3533C46.7976 28.1074 46.6416 28.2693 46.7376 27.7115C46.9775 27.6635 46.9056 27.8075 46.9056 28.0354L47.2415 27.7115L47.1575 28.3533ZM47.3254 29.8109C47.2175 29.8109 47.2175 29.6489 47.3254 29.6489C47.4334 29.6489 47.4334 29.8109 47.3254 29.8109ZM47.3254 21.8933C47.2175 21.8933 47.2175 21.7313 47.3254 21.7313C47.4334 21.7313 47.4334 21.8933 47.3254 21.8933ZM47.4934 29.325C47.3854 29.325 47.3854 29.1631 47.4934 29.1631C47.6014 29.1631 47.6014 29.325 47.4934 29.325ZM47.4934 29.0011C47.3854 29.0011 47.3854 28.8392 47.4934 28.8392C47.6014 28.8392 47.6014 29.0011 47.4934 29.0011ZM47.4934 28.6772C47.3854 28.6772 47.3854 28.5153 47.4934 28.5153C47.6014 28.5153 47.6014 28.6772 47.4934 28.6772ZM47.4934 28.3533C47.3854 28.3533 47.3854 28.1914 47.4934 28.1914C47.6014 28.1914 47.6014 28.3533 47.4934 28.3533ZM47.5774 27.5496C47.6853 27.4236 47.8533 27.7415 47.7453 27.8735C47.6373 27.9994 47.4694 27.6815 47.5774 27.5496ZM47.8293 28.6772C47.7213 28.6772 47.7213 28.5153 47.8293 28.5153C47.9372 28.5153 47.9372 28.6772 47.8293 28.6772ZM47.8293 27.0637C47.7213 27.0637 47.7213 26.9018 47.8293 26.9018C47.9372 26.9018 47.9372 27.0637 47.8293 27.0637ZM47.9133 27.8675H48.0812V28.3533H47.9133V27.8675ZM47.9133 28.9231L48.1652 28.6832C48.3991 28.6832 47.9133 29.1511 47.9133 28.9231ZM48.2432 29.8049C48.1352 29.9308 47.9672 29.6129 48.0752 29.481C48.1832 29.355 48.3511 29.6729 48.2432 29.8049ZM48.3331 29.325C48.2252 29.325 48.2252 29.1631 48.3331 29.1631C48.4411 29.1631 48.4411 29.325 48.3331 29.325ZM48.5791 28.1134L48.5011 28.1914C48.0452 27.9514 48.2971 27.4716 48.5851 27.7115C48.633 27.7535 48.3211 27.9934 48.5851 28.1134H48.5791ZM48.5791 27.2257C48.4711 27.3516 48.3031 27.0337 48.4111 26.9018C48.5191 26.7758 48.687 27.0937 48.5791 27.2257ZM48.747 26.092C48.639 26.218 48.4711 25.9001 48.5791 25.7681C48.687 25.6421 48.855 25.96 48.747 26.092ZM48.831 19.1521C48.9389 19.1521 48.9389 19.3141 48.831 19.3141C48.723 19.3141 48.723 19.1521 48.831 19.1521ZM48.915 29.8049C48.783 29.6969 49.1129 29.5409 49.2508 29.6429C49.3828 29.7509 49.0529 29.9068 48.915 29.8049ZM49.3348 14.4676C49.2269 14.4676 49.2269 14.3056 49.3348 14.3056C49.4428 14.3056 49.4428 14.4676 49.3348 14.4676ZM49.4188 11.8044L49.6707 11.5645C49.9046 11.5645 49.4188 12.0323 49.4188 11.8044ZM50.0006 20.4417C49.8926 20.4417 49.8926 20.2798 50.0006 20.2798C50.1086 20.2798 50.1086 20.4417 50.0006 20.4417ZM50.1686 20.1178C50.0606 20.1178 50.0606 19.9559 50.1686 19.9559C50.2765 19.9559 50.2765 20.1178 50.1686 20.1178ZM50.0906 18.3424C50.1986 18.2164 50.3665 18.5343 50.2585 18.6663C50.1506 18.7923 49.9826 18.4743 50.0906 18.3424ZM50.6724 20.9276C50.5644 20.9276 50.5644 20.7656 50.6724 20.7656C50.7804 20.7656 50.7804 20.9276 50.6724 20.9276ZM50.6724 20.2798C50.5644 20.2798 50.5644 20.1178 50.6724 20.1178C50.7804 20.1178 50.7804 20.2798 50.6724 20.2798ZM50.2585 19.716L50.3365 19.638C50.5464 19.9439 50.6004 19.56 50.7564 19.716C50.5165 20.0039 50.4985 20.0039 50.2585 19.716ZM50.6724 19.3081C50.7804 19.3081 50.7804 19.47 50.6724 19.47C50.5644 19.47 50.5644 19.3081 50.6724 19.3081ZM50.8404 17.8565C50.7324 17.8565 50.7324 17.6946 50.8404 17.6946C50.9483 17.6946 50.9483 17.8565 50.8404 17.8565ZM51.0083 20.4417C50.9003 20.4417 50.9003 20.2798 51.0083 20.2798C51.1163 20.2798 51.1163 20.4417 51.0083 20.4417ZM51.1763 20.1178C51.0683 20.1178 51.0683 19.9559 51.1763 19.9559C51.2842 19.9559 51.2842 20.1178 51.1763 20.1178ZM51.0923 19.716L51.3442 19.476C51.5781 19.476 51.0923 19.9439 51.0923 19.716ZM51.6801 19.47C51.5841 19.2601 51.2962 19.3321 51.2602 19.3081C51.0923 19.1761 51.5601 19.0082 51.7581 19.3921L51.6801 19.47ZM51.3442 18.6663C51.4522 18.6663 51.4522 18.8282 51.3442 18.8282C51.2362 18.8282 51.2362 18.6663 51.3442 18.6663ZM51.6741 18.8282C51.7821 18.8282 51.7821 18.9902 51.6741 18.9902C51.5661 18.9902 51.5661 18.8282 51.6741 18.8282ZM52.094 19.9559L51.7581 19.716V19.638H52.094V19.9619V19.9559ZM52.01 19.3081C52.118 19.3081 52.118 19.47 52.01 19.47C51.902 19.47 51.902 19.3081 52.01 19.3081ZM52.3459 20.6037C52.2379 20.6037 52.2379 20.4417 52.3459 20.4417C52.4539 20.4417 52.4539 20.6037 52.3459 20.6037ZM52.5138 22.5411C52.4059 22.5411 52.4059 22.3791 52.5138 22.3791C52.6218 22.3791 52.6218 22.5411 52.5138 22.5411ZM53.0177 22.865C52.9097 22.865 52.9097 22.703 53.0177 22.703C53.1257 22.703 53.1257 22.865 53.0177 22.865ZM53.3476 22.865C53.2396 22.865 53.2396 22.703 53.3476 22.703C53.4556 22.703 53.4556 22.865 53.3476 22.865ZM53.8514 22.703C53.7435 22.703 53.7435 22.5411 53.8514 22.5411C53.9594 22.5411 53.9594 22.703 53.8514 22.703ZM54.1873 23.0269C54.0794 23.0269 54.0794 22.865 54.1873 22.865C54.2953 22.865 54.2953 23.0269 54.1873 23.0269ZM54.5232 23.9927C54.4153 23.9927 54.4153 23.8307 54.5232 23.8307C54.6312 23.8307 54.6312 23.9927 54.5232 23.9927ZM54.6912 23.3509C54.5832 23.3509 54.5832 23.1889 54.6912 23.1889C54.7991 23.1889 54.7991 23.3509 54.6912 23.3509ZM55.357 24.9644C55.249 24.9644 55.249 24.8024 55.357 24.8024C55.4649 24.8024 55.4649 24.9644 55.357 24.9644ZM55.357 22.0552C55.249 22.0552 55.249 21.8933 55.357 21.8933C55.4649 21.8933 55.4649 22.0552 55.357 22.0552ZM55.6929 23.9927C55.5849 23.9927 55.5849 23.8307 55.6929 23.8307C55.8008 23.8307 55.8008 23.9927 55.6929 23.9927ZM56.0288 18.5043C55.9208 18.5043 55.9208 18.3424 56.0288 18.3424C56.1367 18.3424 56.1367 18.5043 56.0288 18.5043ZM55.9448 15.9191C55.8908 15.9731 56.1547 16.249 56.1127 16.405L55.7768 16.0811C55.8548 16.501 55.5849 16.435 55.201 16.399L55.243 16.6449L54.7751 16.5609L54.8651 16.8788C54.4153 16.5189 53.8934 16.9988 53.4496 17.1128C52.2919 17.4007 51.1163 17.5506 49.9286 17.6886C49.8866 16.9208 49.9886 16.1111 49.9286 15.3493C49.8986 14.9654 49.3648 14.1557 49.9286 13.8978C50.9423 13.7118 51.962 13.6098 52.9817 13.4479C53.4975 13.3639 53.9954 13.148 54.5412 13.094C55.0031 13.046 55.291 13.232 55.7109 13.196C55.7768 13.5619 56.0647 13.3699 56.0767 13.3999C56.0947 13.4479 55.9628 13.6338 56.1067 13.7298C56.2027 13.7958 56.4966 13.5978 56.6946 13.9637C56.7425 14.0477 56.6766 14.1917 56.7245 14.2876C56.8445 14.5156 57.0964 14.6295 57.1204 15.0194L56.7905 14.9354C57.0784 15.5772 56.3407 15.6612 56.3287 15.8172C56.3167 15.9311 56.5146 16.1531 56.4546 16.231C56.2987 16.429 56.2807 15.5892 55.9508 15.9071L55.9448 15.9191ZM56.5266 16.5669C56.4186 16.5669 56.4186 16.405 56.5266 16.405C56.6346 16.405 56.6346 16.5669 56.5266 16.5669ZM56.5266 18.0185C56.4186 18.0185 56.4186 17.8565 56.5266 17.8565C56.6346 17.8565 56.6346 18.0185 56.5266 18.0185ZM56.5266 26.7398C56.4186 26.7398 56.4186 26.5779 56.5266 26.5779C56.6346 26.5779 56.6346 26.7398 56.5266 26.7398ZM56.6106 18.9902H56.4426V18.5043H56.6106V18.9902ZM56.6946 23.9927C56.5866 23.9927 56.5866 23.8307 56.6946 23.8307C56.8025 23.8307 56.8025 23.9927 56.6946 23.9927ZM56.6946 21.5694C56.5866 21.5694 56.5866 21.4074 56.6946 21.4074C56.8025 21.4074 56.8025 21.5694 56.6946 21.5694ZM56.8625 25.7681C56.7545 25.7681 56.7545 25.6062 56.8625 25.6062C56.9705 25.6062 56.9705 25.7681 56.8625 25.7681ZM56.8625 22.2172C56.7545 22.2172 56.7545 22.0552 56.8625 22.0552C56.9705 22.0552 56.9705 22.2172 56.8625 22.2172ZM56.8625 16.0811C56.7545 16.0811 56.7545 15.9191 56.8625 15.9191C56.9705 15.9191 56.9705 16.0811 56.8625 16.0811ZM57.1984 26.5779C57.0904 26.5779 57.0904 26.4159 57.1984 26.4159C57.3064 26.4159 57.3064 26.5779 57.1984 26.5779ZM57.1984 26.254C57.0904 26.254 57.0904 26.092 57.1984 26.092C57.3064 26.092 57.3064 26.254 57.1984 26.254ZM56.9465 21.6534L57.0245 21.5754L57.4443 21.9773L57.3663 22.0552L56.9465 21.6534ZM57.4503 23.0269C57.5583 22.901 57.7262 23.2189 57.6183 23.3509C57.5103 23.4768 57.3424 23.1589 57.4503 23.0269ZM57.7022 26.254C57.5943 26.254 57.5943 26.092 57.7022 26.092C57.8102 26.092 57.8102 26.254 57.7022 26.254ZM57.7022 22.3791C57.5943 22.3791 57.5943 22.2172 57.7022 22.2172C57.8102 22.2172 57.8102 22.3791 57.7022 22.3791ZM57.8702 20.4417C57.7622 20.4417 57.7622 20.2798 57.8702 20.2798C57.9782 20.2798 57.9782 20.4417 57.8702 20.4417ZM58.0321 28.6772C57.9242 28.6772 57.9242 28.5153 58.0321 28.5153C58.1401 28.5153 58.1401 28.6772 58.0321 28.6772ZM60.3774 25.6062C60.4854 25.6062 60.4854 25.7681 60.3774 25.7681C60.2695 25.7681 60.2695 25.6062 60.3774 25.6062ZM60.3774 26.7398C60.4854 26.7398 60.4854 26.9018 60.3774 26.9018C60.2695 26.9018 60.2695 26.7398 60.3774 26.7398ZM60.3774 27.0637C60.5574 27.2137 60.6833 27.3096 60.6293 27.5436C60.3474 27.6035 60.5574 27.2976 60.2994 27.1417L60.3774 27.0637ZM60.3774 27.8675C60.2695 27.8675 60.2695 27.7055 60.3774 27.7055C60.4854 27.7055 60.4854 27.8675 60.3774 27.8675ZM60.3774 28.5153C60.2695 28.5153 60.2695 28.3533 60.3774 28.3533C60.4854 28.3533 60.4854 28.5153 60.3774 28.5153ZM59.7056 24.6405C59.8136 24.6405 59.8136 24.8024 59.7056 24.8024C59.5977 24.8024 59.5977 24.6405 59.7056 24.6405ZM59.7056 24.9644C59.8136 24.9644 59.8136 25.1263 59.7056 25.1263C59.5977 25.1263 59.5977 24.9644 59.7056 24.9644ZM59.5437 23.8307C59.6516 23.8307 59.6516 23.9927 59.5437 23.9927C59.4357 23.9927 59.4357 23.8307 59.5437 23.8307ZM59.5437 28.0294C59.6516 28.0294 59.6516 28.1914 59.5437 28.1914C59.4357 28.1914 59.4357 28.0294 59.5437 28.0294ZM59.5437 28.3533C59.6516 28.3533 59.6516 28.5153 59.5437 28.5153C59.4357 28.5153 59.4357 28.3533 59.5437 28.3533ZM59.3757 27.5496C59.4837 27.5496 59.4837 27.7115 59.3757 27.7115C59.2678 27.7115 59.2678 27.5496 59.3757 27.5496ZM59.2078 25.2883C59.3157 25.2883 59.3157 25.4502 59.2078 25.4502C59.0998 25.4502 59.0998 25.2883 59.2078 25.2883ZM59.0398 27.0637L59.2918 27.3036C59.2918 27.5316 58.8059 27.0577 59.0398 27.0637ZM59.2078 28.3533C59.0998 28.3533 59.0998 28.1914 59.2078 28.1914C59.3157 28.1914 59.3157 28.3533 59.2078 28.3533ZM58.368 29.487C58.2601 29.487 58.2601 29.325 58.368 29.325C58.476 29.325 58.476 29.487 58.368 29.487ZM58.368 26.7398C58.2601 26.7398 58.2601 26.5779 58.368 26.5779C58.476 26.5779 58.476 26.7398 58.368 26.7398ZM58.368 23.1889C58.2601 23.1889 58.2601 23.0269 58.368 23.0269C58.476 23.0269 58.476 23.1889 58.368 23.1889ZM58.368 21.8933C58.2601 21.8933 58.2601 21.7313 58.368 21.7313C58.476 21.7313 58.476 21.8933 58.368 21.8933ZM58.7039 29.1631C58.596 29.1631 58.596 29.0011 58.7039 29.0011C58.8119 29.0011 58.8119 29.1631 58.7039 29.1631ZM58.7039 28.3533C58.596 28.3533 58.596 28.1914 58.7039 28.1914C58.8119 28.1914 58.8119 28.3533 58.7039 28.3533ZM58.8719 28.0294C58.7639 28.0294 58.7639 27.8675 58.8719 27.8675C58.9799 27.8675 58.9799 28.0294 58.8719 28.0294ZM58.8719 27.7115C58.7639 27.7115 58.7639 27.5496 58.8719 27.5496C58.9799 27.5496 58.9799 27.7115 58.8719 27.7115ZM58.8719 23.8307C58.7639 23.8307 58.7639 23.6688 58.8719 23.6688C58.9799 23.6688 58.9799 23.8307 58.8719 23.8307ZM58.9559 28.7552L59.0338 28.6772C59.2438 28.9831 59.2978 28.5992 59.4537 28.7552C59.2138 29.0431 59.1958 29.0431 58.9559 28.7552ZM59.2078 29.9668C59.0998 29.9668 59.0998 29.8049 59.2078 29.8049C59.3157 29.8049 59.3157 29.9668 59.2078 29.9668ZM59.5437 29.6429C59.3637 29.493 59.2378 29.397 59.2918 29.1631C59.5737 29.1031 59.3637 29.409 59.6217 29.5649L59.5437 29.6429ZM59.6277 28.9231L59.8796 28.6832C60.1135 28.6832 59.6277 29.1511 59.6277 28.9231ZM59.8736 29.325C59.7656 29.325 59.7656 29.1631 59.8736 29.1631C59.9815 29.1631 59.9815 29.325 59.8736 29.325ZM59.8736 28.1914C59.7656 28.1914 59.7656 28.0294 59.8736 28.0294C59.9815 28.0294 59.9815 28.1914 59.8736 28.1914ZM59.8736 26.5779C59.7656 26.5779 59.7656 26.4159 59.8736 26.4159C59.9815 26.4159 59.9815 26.5779 59.8736 26.5779ZM60.0415 27.2257L60.2934 27.4656C60.2934 27.6935 59.8076 27.2197 60.0415 27.2257ZM60.6293 29.1631C60.5214 29.289 60.4194 29.0311 60.4494 28.8512C59.9456 29.229 60.0115 28.5393 60.3774 28.6832C60.5214 28.7372 60.7253 29.0551 60.6293 29.1691V29.1631ZM60.7973 26.7398C60.6893 26.8658 60.5214 26.5479 60.6293 26.4159C60.7373 26.2899 60.9053 26.6079 60.7973 26.7398ZM61.5471 25.7681C61.655 25.7681 61.655 25.9301 61.5471 25.9301C61.4391 25.9301 61.4391 25.7681 61.5471 25.7681ZM61.1332 25.2883H61.3011V25.7741H61.1332V25.2883ZM61.0432 28.6772L61.2951 28.9171C61.2951 29.1451 60.8093 28.6712 61.0432 28.6772ZM61.3791 29.9668C61.2711 29.9668 61.2711 29.8049 61.3791 29.8049C61.4871 29.8049 61.4871 29.9668 61.3791 29.9668ZM60.9652 29.403C60.8393 29.1091 61.2412 29.0971 61.3011 29.1631C61.3371 29.1991 61.1092 29.445 61.1452 29.475C61.907 29.523 61.1692 29.8828 60.9652 29.403ZM61.3791 28.0294C61.4871 28.0294 61.4871 28.1914 61.3791 28.1914C61.2711 28.1914 61.2711 28.0294 61.3791 28.0294ZM61.3791 27.3876C61.4871 27.3876 61.4871 27.5496 61.3791 27.5496C61.2711 27.5496 61.2711 27.3876 61.3791 27.3876ZM61.4391 26.9437C61.3911 26.9138 61.2172 27.0277 61.1332 26.9857L61.2112 26.5779C61.649 26.182 61.3191 26.6858 61.3431 26.7038C61.4871 26.7938 61.9249 27.1057 61.799 27.2197C61.4871 27.5076 61.4631 26.9617 61.4391 26.9437ZM61.715 29.325C61.607 29.325 61.607 29.1631 61.715 29.1631C61.823 29.1631 61.823 29.325 61.715 29.325ZM61.715 29.0011C61.607 29.0011 61.607 28.8392 61.715 28.8392C61.823 28.8392 61.823 29.0011 61.715 29.0011ZM61.715 28.1914C61.607 28.1914 61.607 28.0294 61.715 28.0294C61.823 28.0294 61.823 28.1914 61.715 28.1914ZM62.0509 28.3533C61.9429 28.3533 61.9429 28.1914 62.0509 28.1914C62.1589 28.1914 62.1589 28.3533 62.0509 28.3533ZM62.0509 28.0294C61.9429 28.0294 61.9429 27.8675 62.0509 27.8675C62.1589 27.8675 62.1589 28.0294 62.0509 28.0294ZM61.631 27.3876C61.799 27.2556 62.2189 27.6395 62.1349 27.7115C61.9669 27.8435 61.5471 27.4596 61.631 27.3876ZM62.2189 28.6772C62.1109 28.6772 62.1109 28.5153 62.2189 28.5153C62.3268 28.5153 62.3268 28.6772 62.2189 28.6772ZM62.0509 27.0637L62.3028 27.3036C62.3028 27.5316 61.817 27.0577 62.0509 27.0637Z" fill="black"/>
<path d="M24.6764 22.1092C24.2805 22.697 23.8067 23.2249 23.2429 23.6927C22.679 24.1606 22.0552 24.5085 21.3774 24.7484C20.5977 25.0243 19.8119 25.1503 19.0321 25.1263C18.2464 25.1023 17.5506 24.9403 16.9328 24.6344C16.315 24.3345 15.8471 23.9147 15.5172 23.3808C15.5712 23.3388 15.6972 23.2908 15.9011 23.2429C16.105 23.1949 16.333 23.1229 16.5909 23.0329C16.8488 22.943 17.0648 22.877 17.2327 22.841C18.4203 22.4691 19.59 21.9832 20.7416 21.3894C21.8933 20.7956 22.907 20.1178 23.7827 19.3441C24.6524 18.5763 25.2762 17.7246 25.6541 16.7948C26.032 15.8651 26.026 14.8574 25.6421 13.7658C25.3542 12.944 24.8863 12.2542 24.2505 11.6904C23.6147 11.1326 22.859 10.7187 21.9952 10.4608C21.1315 10.2029 20.2018 10.0889 19.2061 10.1309C18.2164 10.1669 17.1967 10.3768 16.147 10.7427C14.9354 11.1686 13.8557 11.7864 12.92 12.5961C11.9783 13.3999 11.2345 14.3416 10.6767 15.4153C10.1189 16.4889 9.79499 17.6586 9.69902 18.9182C9.60305 20.1778 9.78899 21.4734 10.2628 22.811C10.7187 24.1066 11.3665 25.1923 12.2002 26.08C13.034 26.9617 13.9937 27.6455 15.0914 28.1254C16.183 28.6052 17.3707 28.8511 18.6483 28.8631C19.9199 28.8751 21.2155 28.6472 22.5351 28.1853C23.6027 27.8075 24.5804 27.3096 25.4742 26.6978C26.3679 26.08 27.1417 25.3362 27.8015 24.4545C28.4612 23.5728 28.9711 22.5951 29.331 21.5214L25.5461 20.3278C25.3662 20.9216 25.0783 21.5154 24.6824 22.1032L24.6764 22.1092ZM14.1676 20.3278C13.9457 19.572 13.9217 18.7802 14.0897 17.9465C14.2576 17.1127 14.6295 16.351 15.2053 15.6612C15.7811 14.9714 16.5429 14.4616 17.4906 14.1257C18.0844 13.9157 18.6543 13.8258 19.1941 13.8497C19.7339 13.8797 20.1958 14.0057 20.5737 14.2276C20.9516 14.4496 21.2155 14.7675 21.3594 15.1813C21.5334 15.6732 21.4974 16.147 21.2515 16.5909C21.0055 17.0348 20.6157 17.4426 20.0878 17.8145C19.56 18.1864 18.9602 18.5343 18.2884 18.8522C17.6166 19.1701 16.9508 19.446 16.291 19.68C15.8771 19.8239 15.4812 19.9559 15.0914 20.0698C14.7015 20.1838 14.3956 20.2678 14.1616 20.3278H14.1676Z" fill="black"/>
</svg>
